<svg xmlns="http://www.w3.org/2000/svg" width="960" height="720" viewBox="0 0 960 720" fill="none">
  <rect width="960" height="720" rx="40" fill="#eff6ff"/>
  <rect x="70" y="84" width="820" height="552" rx="36" fill="white"/>
  <rect x="124" y="146" width="308" height="430" rx="28" fill="#dbeafe"/>
  <rect x="150" y="176" width="256" height="44" rx="22" fill="white" opacity="0.9"/>
  <text x="178" y="206" fill="#2563eb" font-size="26" font-weight="700" font-family="Arial, Helvetica, sans-serif">Medicines & Care</text>
  <rect x="160" y="258" width="118" height="150" rx="18" fill="white"/>
  <rect x="292" y="258" width="118" height="150" rx="18" fill="white"/>
  <rect x="160" y="426" width="250" height="110" rx="22" fill="white"/>
  <circle cx="219" cy="334" r="26" fill="#93c5fd"/>
  <rect x="190" y="444" width="94" height="18" rx="9" fill="#bfdbfe"/>
  <rect x="190" y="474" width="154" height="18" rx="9" fill="#bfdbfe"/>
  <rect x="190" y="504" width="116" height="18" rx="9" fill="#bfdbfe"/>
  <rect x="537" y="166" width="228" height="338" rx="36" fill="#1d4ed8"/>
  <rect x="560" y="196" width="182" height="230" rx="22" fill="#eff6ff"/>
  <rect x="602" y="142" width="98" height="38" rx="12" fill="#93c5fd"/>
  <rect x="585" y="472" width="132" height="18" rx="9" fill="white" opacity="0.9"/>
  <rect x="585" y="505" width="90" height="18" rx="9" fill="white" opacity="0.75"/>
  <rect x="470" y="338" width="116" height="72" rx="18" fill="white"/>
  <path d="M514 374h28M528 360v28" stroke="#2563eb" stroke-width="8" stroke-linecap="round"/>
  <circle cx="797" cy="250" r="54" fill="#dbeafe"/>
  <path d="M780 250h34M797 233v34" stroke="#2563eb" stroke-width="10" stroke-linecap="round"/>
  <text x="530" y="582" fill="#0f172a" font-size="34" font-weight="700" font-family="Arial, Helvetica, sans-serif">Browse trusted products</text>
  <text x="530" y="622" fill="#475569" font-size="22" font-family="Arial, Helvetica, sans-serif">Diagnosis, delivery and easy ordering in one place.</text>
</svg>